<?xml version="1.0" encoding="UTF-8" standalone="no"?>
<!DOCTYPE svg PUBLIC "-//W3C//DTD SVG 1.1//EN"
 "http://www.w3.org/Graphics/SVG/1.1/DTD/svg11.dtd">
<!-- Generated by graphviz version 14.1.3 (20260303.0454)
 -->
<!-- Title: G Pages: 1 -->
<svg width="789pt" height="697pt"
 viewBox="0.00 0.00 789.00 697.00" xmlns="http://www.w3.org/2000/svg" xmlns:xlink="http://www.w3.org/1999/xlink">
<g id="graph0" class="graph" transform="scale(1 1) rotate(0) translate(18 679)">
<title>G</title>
<polygon fill="white" stroke="none" points="-18,18 -18,-679 770.91,-679 770.91,18 -18,18"/>
<g id="clust1" class="cluster">
<title>cluster_4</title>
<path fill="none" stroke="black" stroke-width="2" d="M360.27,-426C360.27,-426 456.17,-426 456.17,-426 462.17,-426 468.17,-432 468.17,-438 468.17,-438 468.17,-641 468.17,-641 468.17,-647 462.17,-653 456.17,-653 456.17,-653 360.27,-653 360.27,-653 354.27,-653 348.27,-647 348.27,-641 348.27,-641 348.27,-438 348.27,-438 348.27,-432 354.27,-426 360.27,-426"/>
<text xml:space="preserve" text-anchor="middle" x="408.22" y="-636.4" font-family="Times,serif" font-size="14.00">User interface</text>
</g>
<g id="clust2" class="cluster">
<title>cluster_0</title>
<path fill="none" stroke="black" stroke-width="2" d="M370.38,-341C370.38,-341 732.91,-341 732.91,-341 738.91,-341 744.91,-347 744.91,-353 744.91,-353 744.91,-406 744.91,-406 744.91,-412 738.91,-418 732.91,-418 732.91,-418 370.38,-418 370.38,-418 364.38,-418 358.38,-412 358.38,-406 358.38,-406 358.38,-353 358.38,-353 358.38,-347 364.38,-341 370.38,-341"/>
<text xml:space="preserve" text-anchor="middle" x="551.65" y="-401.4" font-family="Times,serif" font-size="14.00">Optical PPG</text>
</g>
<g id="clust3" class="cluster">
<title>cluster_1</title>
<path fill="none" stroke="black" stroke-width="2" d="M368.44,-256C368.44,-256 709.43,-256 709.43,-256 715.43,-256 721.43,-262 721.43,-268 721.43,-268 721.43,-321 721.43,-321 721.43,-327 715.43,-333 709.43,-333 709.43,-333 368.44,-333 368.44,-333 362.44,-333 356.44,-327 356.44,-321 356.44,-321 356.44,-268 356.44,-268 356.44,-262 362.44,-256 368.44,-256"/>
<text xml:space="preserve" text-anchor="middle" x="538.93" y="-316.4" font-family="Times,serif" font-size="14.00">GPS</text>
</g>
<g id="clust4" class="cluster">
<title>cluster_2</title>
<path fill="none" stroke="black" stroke-width="2" d="M364.37,-171C364.37,-171 714.92,-171 714.92,-171 720.92,-171 726.92,-177 726.92,-183 726.92,-183 726.92,-236 726.92,-236 726.92,-242 720.92,-248 714.92,-248 714.92,-248 364.37,-248 364.37,-248 358.37,-248 352.37,-242 352.37,-236 352.37,-236 352.37,-183 352.37,-183 352.37,-177 358.37,-171 364.37,-171"/>
<text xml:space="preserve" text-anchor="middle" x="539.65" y="-231.4" font-family="Times,serif" font-size="14.00">Haptics</text>
</g>
<g id="clust5" class="cluster">
<title>cluster_3</title>
<path fill="none" stroke="black" stroke-width="2" d="M344.49,-8C344.49,-8 472.95,-8 472.95,-8 478.95,-8 484.95,-14 484.95,-20 484.95,-20 484.95,-151 484.95,-151 484.95,-157 478.95,-163 472.95,-163 472.95,-163 344.49,-163 344.49,-163 338.49,-163 332.49,-157 332.49,-151 332.49,-151 332.49,-20 332.49,-20 332.49,-14 338.49,-8 344.49,-8"/>
<text xml:space="preserve" text-anchor="middle" x="408.72" y="-146.4" font-family="Times,serif" font-size="14.00">Environment Perception</text>
</g>
<g id="clust6" class="cluster">
<title>cluster_5</title>
<path fill="lightgray" stroke="lightgray" d="M20,-190C20,-190 121.33,-190 121.33,-190 127.33,-190 133.33,-196 133.33,-202 133.33,-202 133.33,-471 133.33,-471 133.33,-477 127.33,-483 121.33,-483 121.33,-483 20,-483 20,-483 14,-483 8,-477 8,-471 8,-471 8,-202 8,-202 8,-196 14,-190 20,-190"/>
<text xml:space="preserve" text-anchor="start" x="53.95" y="-467.4" font-family="Times,serif" font-weight="bold" font-size="14.00">MCU</text>
</g>
<!-- Speaker -->
<g id="node1" class="node">
<title>Speaker</title>
<polygon fill="none" stroke="black" stroke-dasharray="5,2" points="438.76,-620 377.67,-620 377.67,-584 438.76,-584 438.76,-620"/>
<text xml:space="preserve" text-anchor="middle" x="408.22" y="-597.8" font-family="Times,serif" font-size="14.00">Speaker</text>
</g>
<!-- Display -->
<g id="node2" class="node">
<title>Display</title>
<polygon fill="none" stroke="black" points="460.17,-547.8 356.27,-547.8 356.27,-506.2 460.17,-506.2 460.17,-547.8"/>
<text xml:space="preserve" text-anchor="middle" x="408.22" y="-531.2" font-family="Times,serif" font-size="14.00">Display</text>
<text xml:space="preserve" text-anchor="middle" x="408.22" y="-514.4" font-family="Times,serif" font-size="14.00">LS013B7DH03</text>
</g>
<!-- Buttons -->
<g id="node3" class="node">
<title>Buttons</title>
<polygon fill="none" stroke="black" stroke-dasharray="5,2" points="446.75,-470 369.69,-470 369.69,-434 446.75,-434 446.75,-470"/>
<text xml:space="preserve" text-anchor="middle" x="408.22" y="-447.8" font-family="Times,serif" font-size="14.00">Buttons x4</text>
</g>
<!-- Optical_AFE -->
<g id="node4" class="node">
<title>Optical_AFE</title>
<polygon fill="none" stroke="black" points="450.05,-385 366.38,-385 366.38,-349 450.05,-349 450.05,-385"/>
<text xml:space="preserve" text-anchor="middle" x="408.22" y="-362.8" font-family="Times,serif" font-size="14.00">MAX86141</text>
</g>
<!-- Optical_Module -->
<g id="node5" class="node">
<title>Optical_Module</title>
<ellipse fill="none" stroke="black" cx="686.43" cy="-367" rx="50.48" ry="18"/>
<text xml:space="preserve" text-anchor="middle" x="686.43" y="-362.8" font-family="Times,serif" font-size="14.00">SFH 7074</text>
</g>
<!-- Optical_AFE&#45;&gt;Optical_Module -->
<g id="edge1" class="edge">
<title>Optical_AFE&#45;&gt;Optical_Module</title>
<path fill="none" stroke="black" d="M450.27,-357.06C498.72,-352.66 579.37,-352.34 632.48,-356.11"/>
<polygon fill="black" stroke="black" points="631.95,-359.57 642.19,-356.88 632.5,-352.6 631.95,-359.57"/>
</g>
<!-- Optical_Module&#45;&gt;Optical_AFE -->
<g id="edge2" class="edge">
<title>Optical_Module&#45;&gt;Optical_AFE</title>
<path fill="none" stroke="black" d="M643.7,-377C594.96,-381.37 514.28,-381.65 461.43,-377.84"/>
<polygon fill="black" stroke="black" points="462.03,-374.38 451.78,-377.06 461.47,-381.36 462.03,-374.38"/>
</g>
<!-- GPS -->
<g id="node6" class="node">
<title>GPS</title>
<polygon fill="none" stroke="black" points="452,-300 364.44,-300 364.44,-264 452,-264 452,-300"/>
<text xml:space="preserve" text-anchor="middle" x="408.22" y="-277.8" font-family="Times,serif" font-size="14.00">MAX&#45;M10S</text>
</g>
<!-- GPS_Ant -->
<g id="node7" class="node">
<title>GPS_Ant</title>
<polygon fill="none" stroke="black" points="686.43,-300 659.43,-273 713.43,-273 686.43,-300"/>
<text xml:space="preserve" text-anchor="middle" x="686.43" y="-277.8" font-family="Times,serif" font-size="14.00">Ant</text>
</g>
<!-- GPS&#45;&gt;GPS_Ant -->
<g id="edge3" class="edge">
<title>GPS&#45;&gt;GPS_Ant</title>
<path fill="none" stroke="black" d="M452.38,-282C513.29,-282 621.95,-282 666.04,-282"/>
<polygon fill="black" stroke="black" points="665.8,-285.5 675.8,-282 665.8,-278.5 665.8,-285.5"/>
</g>
<!-- Haptics_driver -->
<g id="node8" class="node">
<title>Haptics_driver</title>
<polygon fill="none" stroke="black" stroke-dasharray="5,2" points="456.07,-215 360.37,-215 360.37,-179 456.07,-179 456.07,-215"/>
<text xml:space="preserve" text-anchor="middle" x="408.22" y="-192.8" font-family="Times,serif" font-size="14.00">Haptics driver</text>
</g>
<!-- Haptics_actuator -->
<g id="node9" class="node">
<title>Haptics_actuator</title>
<ellipse fill="none" stroke="black" stroke-dasharray="5,2" cx="686.43" cy="-197" rx="18" ry="18"/>
<text xml:space="preserve" text-anchor="middle" x="686.43" y="-192.8" font-family="Times,serif" font-size="14.00">Actuator</text>
</g>
<!-- Haptics_driver&#45;&gt;Haptics_actuator -->
<g id="edge4" class="edge">
<title>Haptics_driver&#45;&gt;Haptics_actuator</title>
<path fill="none" stroke="black" d="M456.39,-197C514.1,-197 609.94,-197 657.24,-197"/>
<polygon fill="black" stroke="black" points="657.19,-200.5 667.19,-197 657.19,-193.5 657.19,-200.5"/>
</g>
<!-- IMU -->
<g id="node10" class="node">
<title>IMU</title>
<polygon fill="none" stroke="black" stroke-dasharray="5,2" points="435.22,-130 381.22,-130 381.22,-94 435.22,-94 435.22,-130"/>
<text xml:space="preserve" text-anchor="middle" x="408.22" y="-107.8" font-family="Times,serif" font-size="14.00">IMU</text>
</g>
<!-- Barometer -->
<g id="node11" class="node">
<title>Barometer</title>
<polygon fill="none" stroke="black" points="466.39,-57.8 350.05,-57.8 350.05,-16.2 466.39,-16.2 466.39,-57.8"/>
<text xml:space="preserve" text-anchor="middle" x="408.22" y="-41.2" font-family="Times,serif" font-size="14.00">Barometer</text>
<text xml:space="preserve" text-anchor="middle" x="408.22" y="-24.4" font-family="Times,serif" font-size="14.00">MS5837&#45;02BA21</text>
</g>
<!-- BT_Ant -->
<g id="node12" class="node">
<title>BT_Ant</title>
<polygon fill="white" stroke="black" points="70.67,-234 43.67,-207 97.67,-207 70.67,-234"/>
<text xml:space="preserve" text-anchor="middle" x="70.67" y="-211.8" font-family="Times,serif" font-size="14.00">Ant</text>
</g>
<!-- MCU -->
<g id="node13" class="node">
<title>MCU</title>
<polygon fill="white" stroke="black" points="125.33,-342 16,-342 16,-306 125.33,-306 125.33,-342"/>
<text xml:space="preserve" text-anchor="middle" x="70.67" y="-319.8" font-family="Times,serif" font-size="14.00">ESP32&#45;U4WDH</text>
</g>
<!-- MCU&#45;&gt;Speaker -->
<g id="edge12" class="edge">
<title>MCU&#45;&gt;Speaker</title>
<path fill="none" stroke="black" d="M87.5,-342.25C100.03,-356.74 117.92,-377.57 133.33,-396 165.34,-434.29 167.16,-449.7 204.33,-483 254.88,-528.28 273.32,-532.76 332.49,-566 343.54,-572.21 355.83,-578.41 367.2,-583.87"/>
<polygon fill="black" stroke="black" points="365.42,-586.89 375.95,-588 368.41,-580.56 365.42,-586.89"/>
<text xml:space="preserve" text-anchor="middle" x="232.91" y="-530.56" font-family="Times,serif" font-size="14.00">Digital IO</text>
</g>
<!-- MCU&#45;&gt;Display -->
<g id="edge13" class="edge">
<title>MCU&#45;&gt;Display</title>
<path fill="none" stroke="black" d="M92.79,-342.32C118.22,-363.86 162.7,-399.97 204.33,-426 250.68,-454.97 306.46,-482.24 347.8,-501.12"/>
<polygon fill="black" stroke="black" points="346.32,-504.29 356.87,-505.23 349.21,-497.92 346.32,-504.29"/>
<text xml:space="preserve" text-anchor="middle" x="232.91" y="-461.21" font-family="Times,serif" font-size="14.00">I2C2</text>
</g>
<!-- MCU&#45;&gt;Buttons -->
<g id="edge11" class="edge">
<title>MCU&#45;&gt;Buttons</title>
<path fill="none" stroke="black" d="M116.16,-342.41C167.85,-363.6 255.87,-399.08 332.49,-427 340.89,-430.06 349.88,-433.19 358.6,-436.15"/>
<polygon fill="black" stroke="black" points="357.42,-439.45 368.01,-439.32 359.65,-432.81 357.42,-439.45"/>
<text xml:space="preserve" text-anchor="middle" x="232.91" y="-404.1" font-family="Times,serif" font-size="14.00">Digital IO</text>
</g>
<!-- MCU&#45;&gt;Optical_AFE -->
<g id="edge8" class="edge">
<title>MCU&#45;&gt;Optical_AFE</title>
<path fill="none" stroke="black" d="M125.58,-330.91C188.71,-339 292.58,-352.31 354.98,-360.31"/>
<polygon fill="black" stroke="black" points="354.27,-363.74 364.63,-361.54 355.16,-356.8 354.27,-363.74"/>
<text xml:space="preserve" text-anchor="middle" x="232.91" y="-352.27" font-family="Times,serif" font-size="14.00">SPI</text>
</g>
<!-- MCU&#45;&gt;GPS -->
<g id="edge7" class="edge">
<title>MCU&#45;&gt;GPS</title>
<path fill="none" stroke="black" d="M125.66,-312.07C149.65,-307.14 178.29,-301.76 204.33,-298.2 254.47,-291.35 312,-287.09 352.96,-284.67"/>
<polygon fill="black" stroke="black" points="353.03,-288.17 362.81,-284.11 352.63,-281.19 353.03,-288.17"/>
<text xml:space="preserve" text-anchor="middle" x="232.91" y="-302.4" font-family="Times,serif" font-size="14.00">UART1</text>
</g>
<!-- MCU&#45;&gt;Haptics_driver -->
<g id="edge10" class="edge">
<title>MCU&#45;&gt;Haptics_driver</title>
<path fill="none" stroke="black" d="M111.66,-305.55C137.8,-293.75 172.82,-278.41 204.33,-266.2 252.65,-247.47 308.42,-228.65 349.25,-215.37"/>
<polygon fill="black" stroke="black" points="350.21,-218.74 358.65,-212.33 348.05,-212.08 350.21,-218.74"/>
<text xml:space="preserve" text-anchor="middle" x="232.91" y="-270.4" font-family="Times,serif" font-size="14.00">I2C1</text>
</g>
<!-- MCU&#45;&gt;IMU -->
<g id="edge9" class="edge">
<title>MCU&#45;&gt;IMU</title>
<path fill="none" stroke="black" d="M92.87,-305.52C118.36,-283.76 162.91,-247.16 204.33,-220.2 260.04,-183.94 329.11,-149.08 370.6,-129.13"/>
<polygon fill="black" stroke="black" points="371.89,-132.39 379.41,-124.92 368.88,-126.07 371.89,-132.39"/>
<text xml:space="preserve" text-anchor="middle" x="232.91" y="-224.4" font-family="Times,serif" font-size="14.00">I2C1</text>
</g>
<!-- MCU&#45;&gt;Barometer -->
<g id="edge14" class="edge">
<title>MCU&#45;&gt;Barometer</title>
<path fill="none" stroke="black" d="M87.84,-305.52C100.4,-291.08 118.17,-270.43 133.33,-252 165.66,-212.72 167,-196.77 204.33,-162.2 254.7,-115.56 273.49,-111.09 332.49,-76 339.49,-71.83 346.98,-67.64 354.42,-63.61"/>
<polygon fill="black" stroke="black" points="355.96,-66.76 363.14,-58.97 352.67,-60.58 355.96,-66.76"/>
<text xml:space="preserve" text-anchor="middle" x="232.91" y="-166.4" font-family="Times,serif" font-size="14.00">I2C2</text>
</g>
<!-- MCU&#45;&gt;BT_Ant -->
<g id="edge6" class="edge">
<title>MCU&#45;&gt;BT_Ant</title>
<path fill="none" stroke="black" d="M70.67,-305.55C70.67,-288.33 70.67,-271.11 70.67,-253.89"/>
<polygon fill="black" stroke="black" points="74.17,-254.09 70.67,-244.09 67.17,-254.09 74.17,-254.09"/>
<text xml:space="preserve" text-anchor="middle" x="51.41" y="-261.47" font-family="Times,serif" font-size="14.00">BT RF</text>
</g>
<!-- eMMC -->
<g id="node14" class="node">
<title>eMMC</title>
<polygon fill="white" stroke="black" points="98.89,-450 42.44,-450 42.44,-414 98.89,-414 98.89,-450"/>
<text xml:space="preserve" text-anchor="middle" x="70.67" y="-427.8" font-family="Times,serif" font-size="14.00">eMMC</text>
</g>
<!-- MCU&#45;&gt;eMMC -->
<g id="edge5" class="edge">
<title>MCU&#45;&gt;eMMC</title>
<path fill="none" stroke="black" d="M70.67,-342.14C70.67,-362.19 70.67,-382.23 70.67,-402.28"/>
<polygon fill="black" stroke="black" points="67.17,-402.23 70.67,-412.23 74.17,-402.23 67.17,-402.23"/>
<text xml:space="preserve" text-anchor="middle" x="54.33" y="-365.25" font-family="Times,serif" font-size="14.00">SDIO</text>
</g>
</g>
</svg>
